<svg xmlns="http://www.w3.org/2000/svg" viewBox="0 0 356.83 53.43"><g id="レイヤー_2" data-name="レイヤー 2"><g id="レイヤー_1-2" data-name="レイヤー 1"><path d="M235.92,53.43,233.7,52.1c-.48-.28-1.08-.58-.82-1.22a1,1,0,0,1,1.45-.63,4,4,0,0,0,3.1-.62,28.87,28.87,0,0,0,6-4.53c1.29-1.26,2.73-2.37,4-3.67,1.42-1.47,2.77-3,4.05-4.63.75-.93,1.31-2,2-3,.43-.66,1-1.27,1.34-2q1.41-2.49,2.72-5a33,33,0,0,0,2.09-4.42c.67-1.94,1.08-4,1.6-6,.15-.58.27-1.16.44-1.85,1.37.31,2.83-.11,4,1a3.07,3.07,0,0,1,.65,3.84,15.06,15.06,0,0,0-.46,2.06A29,29,0,0,1,263,28c-.68,1.13-1,2.46-1.75,3.55S260.1,34.06,259,35c-.6.52-.8,1.46-1.27,2.15A24.35,24.35,0,0,1,256,39.28c-.73.84-1.45,1.7-2.23,2.48-1.52,1.52-3.08,3-4.64,4.47-1,1-2,2-3.15,2.93a30.18,30.18,0,0,1-4.45,3.12,15.46,15.46,0,0,1-3.58.95l-.68.2Z"/><path d="M0,33.51c.8-1.22,2.13-1.68,3.33-2.32,1.49-.79,3-1.46,4.49-2.15-.21-2.05-.4-4.17-.63-6.28-.18-1.68-.51-3.35-.57-5a44.73,44.73,0,0,1,.2-5.43c.09-1.19-.06-1.37-1.22-1.78A15.11,15.11,0,0,1,2.61,9C2,8.57,2.35,7,2.87,6.74c1.44-.83,2.87-1.69,4.34-2.47,1.62-.85,3.23-1.84,5.09-2a7,7,0,0,1,2.64.63,5.43,5.43,0,0,1,1.53,1c.75.62.58,1.28-.32,1.66-1.34.55-2.66,1.14-4.08,1.76,1.09,2.15.38,4.16.22,6.19a62.32,62.32,0,0,0,0,6.41c0,1,.06,2.07.1,3.1.06,1.28.11,2.56.23,3.84,0,.17.4.43.61.43A4.3,4.3,0,0,0,14.94,27c1.38-.67,2.42.26,3.54.68.59.22.46,1.21-.12,1.57a38.17,38.17,0,0,1-8.1,3.68c-.73.25-1.34.86-2.06,1.17-1.21.53-2.15,1.61-3.55,1.72a3.93,3.93,0,0,1-3-.56A4.81,4.81,0,0,1,0,33.7Z"/><path d="M221.16.86a11.14,11.14,0,0,1,2.56.43,42,42,0,0,1,4.48,2.3c.23.13.27.73.27,1.11,0,.73-.69.86-1.15,1.18-.07,0-.26,0-.35-.11-1.67-1.45-3.67-1.12-5.62-1-.95.06-1.89.22-2.84.37-.71.11-1.41.29-2.19.46a14.68,14.68,0,0,1,.36,1.53c.31,2.58-.56,5-.87,7.53s-.62,4.72-.85,7.09c-.1,1,0,2,0,3,0,.18-.28.36-.48.61l2,4.24a2.45,2.45,0,0,1-3.23,0A13,13,0,0,1,211.06,28a5.47,5.47,0,0,1-1.12-2.15,20,20,0,0,1-.17-8.41c.21-1.53.32-3.06.54-4.58.16-1,.46-2,.66-3,.13-.74.19-1.5.32-2.47a7.44,7.44,0,0,0-1.22.45,4.1,4.1,0,0,1-4.85-.48,4.22,4.22,0,0,1-1.3-1.43c-.41-.86.46-1.18,1-1.42a43.35,43.35,0,0,1,4.54-1.81,31.72,31.72,0,0,1,9.47-1.6,2.48,2.48,0,0,0,.68-.19Z"/><path d="M356.83,29.8a3.7,3.7,0,0,1-3.64-1.17,5.84,5.84,0,0,1-.42-.56c.24-.13.47-.37.7-.38a4.3,4.3,0,0,1,3.36,1.14Z"/><path d="M112.7,16.74c.4-1,.71-2,1.08-2.86,1-2.53,2.08-5.06,3.12-7.59.59-1.44,1.24-2.86,1.73-4.33A2.56,2.56,0,0,1,122.24.25a6,6,0,0,0,.89.33,3.24,3.24,0,0,1,2.1,2.55c.2,1.63.53,3.25.78,4.88.21,1.45.34,2.91.59,4.35.17,1,.53,1.93.7,2.91.21,1.16.23,2.36.46,3.51.32,1.6.77,3.17,1.15,4.75a10.22,10.22,0,0,0,.19,1.15,11,11,0,0,0,1,2.33c.25.38.89.48,1.3.77.73.53.83,1.83.18,3a1.44,1.44,0,0,1-1.84.54A28.11,28.11,0,0,1,126.29,30c-.37-.18-.57-.74-.81-1.15a22.23,22.23,0,0,1-2.19-6.38c-.21-1-.61-1.87-.82-2.82s-.38-2.12-.53-3.18c-.28-1.95-.52-3.91-.8-5.86a2.41,2.41,0,0,0-.29-.62c-.25.68-.43,1.22-.64,1.76-.33.81-.72,1.6-1,2.43s-.48,1.82-.79,2.7c-1,2.78-2,5.55-3,8.33a14.33,14.33,0,0,1-.61,1.58,1.94,1.94,0,0,1-3.12.76,2.28,2.28,0,0,0-.52-.18,3.15,3.15,0,0,1-2.33-2.23c-.6-2.41-1.54-4.73-1.51-7.29a17.31,17.31,0,0,0-.5-3c-.65,1.17-1.27,2.22-1.82,3.3-1,2-2.07,4.1-3,6.18-.47,1-.81,2.09-1.23,3.12s-.85,1.71-1.12,2.61a16.89,16.89,0,0,1-.37,1.86,9.91,9.91,0,0,1-.72,1.23,2.11,2.11,0,0,1-2.41.36c-.68-.35-1.46-.52-2.11-.93-1.27-.79-1.33-1.72-.61-3s1.24-2.84,1.91-4.24c.93-1.94,1.92-3.86,2.89-5.79.8-1.61,1.55-3.24,2.39-4.82.92-1.73,1.94-3.4,2.87-5.12.82-1.51,1.62-3,2.35-4.59a1.52,1.52,0,0,1,1.91-.92c.78.15,1.56.27,2.34.39A2.63,2.63,0,0,1,112,6.64c.13,2.89.26,5.77.42,8.65A11.17,11.17,0,0,0,112.7,16.74Z"/><path d="M171.61,21.43c-.22-2.53,1.27-4.43,2-6.57,0-.06.08-.11.1-.16.24-.8.24-1.83,1.44-1.8.84,0,1.68.23,2.52.28.53,0,1.06-.09,1.59-.1a5,5,0,0,1,1.94,0,19.34,19.34,0,0,1,3.92,2,3.64,3.64,0,0,1,1.22,2.11,8.06,8.06,0,0,1-1,6.54c-.45.64-.7,1.42-1.09,2.1a9.85,9.85,0,0,1-1.69,2.61A5.68,5.68,0,0,1,179.66,30a7.63,7.63,0,0,1-5-1.23A9.61,9.61,0,0,1,172.79,27c-.23-.23-.42-.48-.69-.8-.53,1.07-1,2.05-1.51,3.05a4.81,4.81,0,0,1-6.26,2,18.64,18.64,0,0,1-3-2,3.69,3.69,0,0,1-1.13-1.82,25.75,25.75,0,0,1-.95-4.81,24.25,24.25,0,0,1,.51-3.72c.21-2.1,1.25-4,1.62-6.2-.93.45-1.89.84-2.77,1.35a4.16,4.16,0,0,1-5-.3,6.68,6.68,0,0,1-1.16-.82c-.43-.54-.47-1.15.32-1.49,1.09-.47,2.2-.92,3.3-1.37l4.36-1.77a9.13,9.13,0,0,1,2.1-.84,2,2,0,0,0,1.55-1.09c.5-1,1.25-.76,2.06-.77,1.64,0,3.28-.14,4.93-.2.78,0,1.56,0,2.34,0a3.67,3.67,0,0,1,1.42.12,9,9,0,0,1,1.54,1.14,4.88,4.88,0,0,1-3.3,1.77,10.56,10.56,0,0,0-4.27,1.74c-.64.4-1,1.42-1.27,2.21-.53,1.28-1,2.58-1.39,3.9s-.68,2.43-1,3.66a17.08,17.08,0,0,0-.55,3.14,29.19,29.19,0,0,0,.19,3.74c0,.2.35.55.43.52a1.94,1.94,0,0,0,1-.59,45.25,45.25,0,0,0,2.43-4.14,1.91,1.91,0,0,1,2.18-1.26A5.42,5.42,0,0,0,171.61,21.43Zm5.8,4.5.33,0c2-2.41,3.77-4.95,3.62-8.41-.9.2-1.68.42-2.47.54s-.53.95-.84,1.4a8.15,8.15,0,0,0-1,5.18A5.85,5.85,0,0,0,177.41,25.93Z"/><path d="M236.3,24.18A15.73,15.73,0,0,0,235.18,26c-.66,1.43-2,2.19-3.11,3.14a16.9,16.9,0,0,1-2.26,1.53c-1.17.72-3.3,0-4.06-.9a1,1,0,0,1,.1-1.53c1.35-1.4,2.6-2.9,3.89-4.35.17-.18.42-.29.58-.48a4.75,4.75,0,0,0,.42-.82c-1.46.4-2.73.76-4,1.09a29.67,29.67,0,0,1-3.92.91,5.87,5.87,0,0,1-4.58-1.51c-1.53-1.28-1.84-2.47-.55-4.06,1.7-2.12,3.55-4.12,5.34-6.16a13.39,13.39,0,0,1,1.4-1.51,4.84,4.84,0,0,1,5.85-.32,12.86,12.86,0,0,1,1.1.71,2.69,2.69,0,0,1,1,2.91,3.2,3.2,0,0,1-.18.93,2.72,2.72,0,0,1-.6.76,9.86,9.86,0,0,1-.93.71l-2.86-1.4c-.79.74-1.53,1.36-2.19,2.05s-1.19,1.42-1.9,2.27l4.46-.81a8.84,8.84,0,0,1,7.19,1.32,9.28,9.28,0,0,1,1.43,1.74c.56-1.39,1.1-3,1.87-4.53A9,9,0,0,1,240.8,15c.95-.79,2-.08,2.94.39.23.11.42.29.65.41,1.5.77,1.48,1,.46,2.29a15.6,15.6,0,0,0-1.73,3.1,22.45,22.45,0,0,0-.83,2.25l.23.18c1-1,2-1.94,3-2.94,1.2-1.23,2.41-2.46,3.53-3.76a6.76,6.76,0,0,0,1-1.88,1.44,1.44,0,0,1,1.46-1,4.65,4.65,0,0,1,3.5,1.39,2,2,0,0,1,.1,2.6c-.46.74-.62,1.66-1.11,2.37a18.55,18.55,0,0,0-2,5.2,2.55,2.55,0,0,0,0,.41,2.86,2.86,0,0,1,2.45,1.8,2.15,2.15,0,0,1-.41,2.17c-.52.92-2.67,1.41-3.63.92A11.79,11.79,0,0,1,247.57,29a7.45,7.45,0,0,1-1.07-2.25c-1.78,1.29-3.23,3.64-6,2.45-2.17-.93-4-2.22-3.93-5.07Z"/><path d="M145.26,27.44c-1.34,1.22-2.4,2.21-3.49,3.16-1.39,1.23-3,.84-4.49.41a5.68,5.68,0,0,1-2.8-1.82,3.12,3.12,0,0,1-.54-.89,10.17,10.17,0,0,1-.49-5.61c.25-1.36.9-2.56,1.08-3.91.12-.86.32-1.73.52-2.58a1.06,1.06,0,0,1,.44-.65,3,3,0,0,1,3.13.11c.44.33,1.11.39,1.54.75.85.7.28,1.73.29,2.57a2.35,2.35,0,0,1-.7,1.8c-.58.57-.57,1.76-.77,2.69a7.72,7.72,0,0,0-.15,1.59c0,.21.22.41.34.62a2.23,2.23,0,0,0,.54-.4c1-1.4,2-2.79,2.86-4.23s1.53-2.65,2.22-4a1.22,1.22,0,0,1,1-.73c1.28-.28,2.55-.54,3.71.34a2.87,2.87,0,0,1,1.23,2.11c.22,1.9-.63,3.59-.81,5.59a6,6,0,0,0,.88-.6c1.27-1.26,2.51-2.56,3.79-3.81a1.15,1.15,0,0,1,.72-.19,5.62,5.62,0,0,1,1,.18l.16-.3c.4.7.83,1.38,1.18,2.11a.87.87,0,0,1-.06.81c-1.7,1.4-2.42,3.61-4.2,5-.59.46-.85,1.53-1.72,1.94a1.9,1.9,0,0,1-.78.26A8,8,0,0,1,146,28.43,3.66,3.66,0,0,1,145.26,27.44Z"/><path d="M285.82,20.47l1.31-1.58a7,7,0,0,1,.86-1c.54-.46,1.15-1.18,1.74-1.18a4.28,4.28,0,0,1,3.95,1.67A3.77,3.77,0,0,1,294,19.7c0,.19-.06.41,0,.58a2,2,0,0,1-.15,2.18l.29.14a10.57,10.57,0,0,0,1.44-1.3c.65-.85,1.16-1.8,1.79-2.66a1.54,1.54,0,0,1,.91-.64A5.49,5.49,0,0,1,302,19.06c1.71,1.17,1.65,3,2.45,4.44a9,9,0,0,0,1.62,2.32,2.1,2.1,0,0,1,.42,2.52c-2.75.81-5.15-1.07-6.82-4.21l-3.87,3.54a3.35,3.35,0,0,1-4.26.38c-1.18-.86-2.56-1.56-2.74-3.31l-.29,0a25.57,25.57,0,0,1-1.95,2.92c-.75.85-1.07,2.2-2.42,2.42-.71.11-1.41.27-2-.48a5.33,5.33,0,0,0-1.36-.92,2.26,2.26,0,0,1-1-2.31c.12-1.41.13-2.82.21-4.23,0-.73.15-1.46.2-2.19.08-1.2.2-2.4.17-3.6s.14-1.39,1.38-1.47a4.08,4.08,0,0,1,2.92,1,3.35,3.35,0,0,1,.9,1.95,14,14,0,0,1,0,2.59Z"/><path d="M75.94,12.36c-.43.55-.85,1-1.72.74-1.45-.45-2.21.75-3.1,1.5a16.46,16.46,0,0,0-1.58,1.8c1.09-.07,2.06-.16,3-.19a9.43,9.43,0,0,1,6.56,2.3,5.37,5.37,0,0,1,1,3.9A11.09,11.09,0,0,1,77,27.68c-2,1.95-4,4.12-6.85,5.13-1.29.47-3.55-.33-3.88-1.57a1,1,0,0,1,.16-.88c1.79-1.66,3.63-3.26,5.42-4.91a8.52,8.52,0,0,0,1.34-1.54c.68-1,1.3-2.12,1.89-3.21.42-.75-.11-1.09-.71-1a24,24,0,0,0-3.73.94,58.1,58.1,0,0,1-6.11,2.22c-1,.22-2.17-.6-3.27-1-.06,0-.06-.19-.13-.25-1.86-1.74-2-2.07-.33-3.9,2.46-2.68,5.1-5.22,7.72-7.76,1.22-1.17,2.64-1.11,4.25-.63A4.58,4.58,0,0,1,75.94,12.36Z"/><path d="M22.27,19.84c-1.37-.57-2.59-1-3.73-1.57s-1.06-1.52-.09-2.37a22.56,22.56,0,0,1,4.89-3.55,2.57,2.57,0,0,0,1.58-2A10.34,10.34,0,0,1,26.5,7.14a1.26,1.26,0,0,1,.85-.32,5.58,5.58,0,0,1,1.53.08,3.94,3.94,0,0,1,1,.49c.11.06.17.25.27.27,1.69.28,1.31,1.75,1.62,2.82.07.24.12.49.2.73a2.25,2.25,0,0,1-1.22,3c-1.84.55-2.14,2-2.44,3.44a50.21,50.21,0,0,0-.79,5.48,11.44,11.44,0,0,0,1.37,5.95c.36.78,1.62.6,2.32-.23,1.23-1.45,2.47-2.9,3.81-4.25A1.33,1.33,0,0,1,37,24.53c1.21,1,1.36,2,.47,3.46a3,3,0,0,0-.19.62,7.75,7.75,0,0,1-3.12,3.9,5.56,5.56,0,0,1-4.38.67,8.23,8.23,0,0,1-4.94-3.13,13,13,0,0,1-2-3.17,5.36,5.36,0,0,1-.29-1.18,28,28,0,0,1-.36-3C22.12,21.65,22.24,20.62,22.27,19.84Z"/><path d="M329.38,25.93,331.06,24c.56-.65,1.55-.6,2.83.18-.3,1-.54,2.09-.95,3.1s-1,2-1.44,2.86a18.87,18.87,0,0,1-1.87.47,1.83,1.83,0,0,1-1.09-.1,6.83,6.83,0,0,1-3.92-6.38c0-.91-.22-1.82-.17-2.72.1-1.52.36-3,.48-4.54a1.11,1.11,0,0,0-.51-.89,10,10,0,0,1-3.83-2.84,1.23,1.23,0,0,1-.1-1c.05-.14.57-.25.84-.2,1.26.22,2.51.53,3.77.76.56.09.84-.06,1.15-.75a46,46,0,0,1,3.12-5.61,32.15,32.15,0,0,1,2.85-3.64,2.32,2.32,0,0,1,3.34,0c.06.06.18.07.25.13,1.29,1.21,1.25,1.67.15,3.08S333.72,9,332.59,10.6a11.44,11.44,0,0,1-.79.85,6.51,6.51,0,0,0,1.19.11,17.75,17.75,0,0,1,3.12-.39,3.3,3.3,0,0,1,1.72,1.07c.11.1-.28.71-.4,1.09-.54,1.68-2.1,1.5-3.36,1.82s-2.41.34-3.53.73c-.42.14-.74.94-.85,1.49-.29,1.33-.46,2.69-.62,4a18.29,18.29,0,0,0,0,2v2.45Z"/><path d="M336.35,23.78a27,27,0,0,1,.19-3.49,7.68,7.68,0,0,1,1-2.45,20.25,20.25,0,0,1,1.59-2,3.84,3.84,0,0,1,3.51-1.31c1.55,0,2.33,1.17,3.5,1.69a9,9,0,0,1,2.07,1.13,6.86,6.86,0,0,1,1.65,1.91c.66,1.18.18,2.4-.38,3.46a47.69,47.69,0,0,1-2.58,4.14,3.55,3.55,0,0,1-1.15,1.1c-1.11.6-2.16,1.57-3.49,1.39a8,8,0,0,1-2.94-1.13c-1.44-.88-2.11-2.41-2.83-3.86-.06-.14,0-.36.05-.54Zm9.28-4c-1-.12-1-.11-1.6.57a1,1,0,0,1-.55.3c-1.83.27-2.42,1-2.38,2.84,0,.54-.08,1.07-.13,1.71C343,23.88,344,23.33,345.63,19.75Z"/><path d="M307.76,23.91c-.05-2.33,1.16-4.11,2.5-5.82a20,20,0,0,1,2.22-2.46,2.63,2.63,0,0,1,1.53-.57,3.57,3.57,0,0,1,2.59.36c1.5,1.12,3,2.19,4.55,3.3a1,1,0,0,1,.36.71c0,1.2.33,2.34-.2,3.61a9.7,9.7,0,0,1-3.67,4.6,1.13,1.13,0,0,0-.29.24,5,5,0,0,1-7.26.2c-.87-.91-2-1.64-2.23-3A11.15,11.15,0,0,1,307.76,23.91Zm4.92,1.51c2.23-1,4.47-3.7,4.34-5.3-1.46-.17-1.68-.16-2.22.6C313.79,22.14,312.6,23.49,312.68,25.42Z"/><path d="M58.08,17.3c0,1.72,0,3.43,0,5.14,0,2-.17,4,.58,6a1.75,1.75,0,0,0,.34.65,6,6,0,0,1,1.2,2.53c.13.4-.57.95-1.09.87a12.6,12.6,0,0,1-1.75-.35,4.32,4.32,0,0,1-2.77-2.36c-.61-1.43-1.25-2.87-1.72-4.35a13.39,13.39,0,0,1-.22-2.4,23,23,0,0,1,.18-6.53,8.7,8.7,0,0,0-.16-1.41c0-1.64.75-2.28,2.26-1.73a25.63,25.63,0,0,1,2.79,1.36.77.77,0,0,1,.34.51c.1.69.15,1.39.21,2.09Z"/><path d="M272.26,30.63c-1.09.15-.89-.95-1.35-1.36-.22-.18-.25-.57-.45-.79a3.6,3.6,0,0,1-.7-2.41,47.2,47.2,0,0,1,.14-5.32,22.4,22.4,0,0,1,.82-3.87,8.17,8.17,0,0,1,1-2,1,1,0,0,1,.79-.39c1.36.13,2.75.2,3.83,1.23.47.44.46,1.75.09,2.64s-1.23,1.67-.72,2.8c0,.07,0,.23-.06.26-1.21.72-.66,2-.8,3a38.86,38.86,0,0,0,.09,4.31c0,.64,0,1.52-1.11,1.53A5.68,5.68,0,0,0,272.26,30.63Z"/><path d="M61.91,6.92c-.72,1.2-1.12,1.29-2.45,1.07a5.32,5.32,0,0,0-2.35.11c-2.06.66-3.5-.41-4.91-1.59A.88.88,0,0,1,52.54,5a9.65,9.65,0,0,1,2.77-.9,6,6,0,0,1,4,.85C60.16,5.57,61,6.22,61.91,6.92Z"/><path d="M268,8.93c-.7.09-1.41.21-2.11.26a2.77,2.77,0,0,1-2.32-.79c-.44-.44-1.18-.58-1.65-1a1.63,1.63,0,0,1-.43-1.23c0-.23.55-.55.89-.61a8.91,8.91,0,0,1,4.67,0,12.79,12.79,0,0,1,2.88,1.4c.37.24.44,1,.55,1.48a2.31,2.31,0,0,1-.87.36c-.53.11-1.07.15-1.6.21Z"/><path d="M275,5.28c1,.37,2.07.73,3.13,1.19.58.26,1.36.31,1.57,1.1.07.24.17.54.07.72a2.29,2.29,0,0,1-2.92.82A25.86,25.86,0,0,1,274,7c-.31-.25-.35-.82-.51-1.25Z"/></g></g></svg>