<svg xmlns="http://www.w3.org/2000/svg" viewBox="0 0 519.38 58.49"><defs><style>.cls-1{fill:#0c243f;}</style></defs><g id="レイヤー_2" data-name="レイヤー 2"><g id="レイヤー_1-2" data-name="レイヤー 1"><path class="cls-1" d="M491.2,58.49c-2.08-1.46-2-1.43-1.09-3.9,1.76-4.92,3.4-9.89,5.1-14.84.07-.2.2-.38.28-.57.3-.67.49-1.11-.48-1.59A13,13,0,0,1,491.58,35a5.41,5.41,0,0,1-1.13-2.5c-.18-.8-.58-1-1.21-.81-3.39.86-6.78,1.71-10.16,2.64-1.47.4-1.57.92-1.47,2.4a56.72,56.72,0,0,1,0,6.52,17.69,17.69,0,0,1-.64,4c-.25.91-1,1.23-2.08,1.25-4,.09-7.4-1.7-10.61-3.77a30,30,0,0,1-4.58-4c-.69-.68-.51-1.32.39-2,3.58-2.69,7.68-4.28,11.75-6a1.81,1.81,0,0,0,.95-1.17c.12-1.22-.28-1.42-1.44-1-2,.7-3.95,1.41-5.95,2a4.78,4.78,0,0,1-5.12-1.85c-.65-1-.43-1.68.69-1.64,2.57.09,4.84-1,7.19-1.71a14.81,14.81,0,0,0,4.06-2.23c.38-.27.32-1.17.46-1.78l-.3-.33c-1.11.46-2.23.91-3.33,1.39a9.72,9.72,0,0,0-1.14.63,3.75,3.75,0,0,1-5.16-1c-.45-.61-.61-1.29.34-1.69,2.26-1,4.51-2,6.79-2.91a20.82,20.82,0,0,1,3.85-1.31,4.5,4.5,0,0,1,4.88,4.22c.07.93-.53,1.9-.71,2.87-.33,1.71-.58,3.43-.91,5.44l3-.35c3.11-.36,6.23-.68,9.33-1.11.44-.06.9-.57,1.2-1,1.08-1.45,2-3,3.16-4.42,1-1.23,2.45-2.15,3.53-3.36a2.63,2.63,0,0,1,2.9-.64c1,.24,1.18,0,1.24-.87.06-1,.21-2.05.35-3.28-.85.44-1.73.87-2.59,1.32-.43.22-.83.49-1.25.7a3.84,3.84,0,0,1-5.08-1.1c-.82-1-.6-1.67.58-2.19,3.08-1.37,6.17-2.73,9.16-4.29.56-.3.83-1.52.9-2.34.23-2.44.43-2.54,2.74-1.75a5.94,5.94,0,0,1,3.46,3.6,2,2,0,0,1-.31,1.85c-1.76,1.21-2,3.11-2.38,4.88-.57,2.36-1,4.76-1.4,7.15-.37,2-.52,4.09-1.07,6-.8,2.82-1.83,5.57-2.85,8.31-1.2,3.23-2.49,6.41-3.75,9.61-.54,1.38-.53,3-2,4-.36.25-.17,1.18-.44,1.7-.95,1.85-1.66,3.85-3.17,5.38ZM472.87,37a26.92,26.92,0,0,0-8.19,4.39,13.23,13.23,0,0,0,6.08,3.53c1.41.47,2,.09,2.09-1.42C472.92,41.46,472.87,39.41,472.87,37ZM500.21,25.2l-.59-.28c-2,2.11-4.69,3.85-4.44,7.4a13.5,13.5,0,0,0,.44,2c.62-.36,1.59-.58,1.8-1.1C498.46,30.56,499.3,27.87,500.21,25.2Z"/><path class="cls-1" d="M289.67,0a13.71,13.71,0,0,0,2.58,1.27c1.24.33,1.23,1,.83,1.94a3.2,3.2,0,0,0,3.81-1.45c.49-.95,1.12-1.55,2.29-1C300,1.2,301,1.51,301.8,2c.25.14.27.68.44,1a4.18,4.18,0,0,0,.65,1,6.25,6.25,0,0,1,1.19,1.27c-.7.18-1.41.33-2.1.55-.47.15-1.13.28-1.32.63a30.12,30.12,0,0,0-1.33,3.22,54.36,54.36,0,0,1,5.87.47,11.16,11.16,0,0,1,3.39,1.51c.74.43.72,2.2,0,3.25a29.5,29.5,0,0,1-2.16,2.58c-1.18,1.33-2.33,2.69-3.58,3.95a12.37,12.37,0,0,1-1.91,1.21,3.57,3.57,0,0,0-.93.84c-1,1.36-1.93,1.56-3.35.59s-2.22.2-3.14.69c-2.14,1.13-3.74,1-5.43-.72-.8-.8-.58-1.26.23-1.83,1.15-.82,2.25-1.73,3.36-2.6-1.1-1.46-1.31-1.48-2.45-.46-.49.43-1,.85-1.52,1.24A4.55,4.55,0,0,0,286,24.06c-.11,2.5-1.6,3.1-3.48,1.72-1.18-.87-2.41-1.7-3.55-2.64-.33-.27-.42-.84-.62-1.27.51-.2,1.12-.67,1.52-.53,1.2.43,1.33-.1,1.76-1.08a9,9,0,0,1,2.48-3.08,28.41,28.41,0,0,1,8-4.68,2.91,2.91,0,0,0,2.06-2.84,19.14,19.14,0,0,1,.49-2.39c-1,.59-2,.88-2.2,1.45s.31,1.61.5,2.4c-1.39,1-2.5.54-3.65-.36a1.76,1.76,0,0,0-1.62-.13,53.68,53.68,0,0,0-4.86,3.21c-2.29,1.71-4.21,1.59-6-.61-.14-.18.1-.94.37-1.12A79.42,79.42,0,0,1,285.31,7a4.71,4.71,0,0,0,2.81-4.15A17.91,17.91,0,0,1,288.87,0Zm9.22,19.15c1.63-2,3.11-3.82,4.6-5.64l-.26-.47L297,14.88a14.58,14.58,0,0,1,2.46,1.52C300.53,17.43,298.7,17.92,298.89,19.15Z"/><path class="cls-1" d="M0,29.64c.09-.14.25-.27.26-.4.11-2.29.16-4.59.31-6.87.1-1.38.33-2.75.53-4.12a.77.77,0,0,1,.38-.5,3.75,3.75,0,0,1,3.58.31c1.18.59,1.11,1.58,1,2.59-.23,2.16-.62,4.32-.74,6.48a54.62,54.62,0,0,0,0,7.46A58.64,58.64,0,0,0,6.6,42,49,49,0,0,0,8.27,47.8c.23.67.94,1.16,1.39,1.76a11.47,11.47,0,0,1,.65,1.19,5.84,5.84,0,0,1-1.24.15c-3.84-.27-5.27-3.16-6.35-6.18A48.5,48.5,0,0,1,.26,31.89c0-.13-.17-.26-.26-.39Z"/><path class="cls-1" d="M519.38,47.85a5.69,5.69,0,0,0-.71.32c-2.41,1.53-3.63,1.23-5.13-1.26-.63-1-.27-1.65.87-2,2.19-.67,3.58.54,5,1.88Z"/><path class="cls-1" d="M309.38,30.87l9.27-12.1a5.48,5.48,0,0,1-1-.58c-1.52-1.3-1.47-2.2.25-3.28s3.79-2.25,5.66-3.41a1.72,1.72,0,0,0,.69-1c.24-1,.87-1.4,1.79-1.11a32.86,32.86,0,0,1,4.21,1.6,2.07,2.07,0,0,1,.84,1.38c0,.23-.6.59-.95.88a15.62,15.62,0,0,0-2.21,1.82c-.89,1.05-1.58,2.28-2.4,3.4s-1.66,2.15-2.51,3.24c1.19,1.08,2.06-.05,2.95-.48,2.86-1.38,5.59-3,8.52-4.23,3.56-1.44,7.69,1.48,8,5.3a45.84,45.84,0,0,1-.58,10.84c-.56,3.39-.63,6.86-1,10.29-.23,2.17-.58,4.34-.93,6.5-.26,1.65-1.1,2.07-2.64,1.32a16.68,16.68,0,0,1-6.14-5.39c-1-1.33-2-2.64-3.06-3.91a2.59,2.59,0,0,0-2.51-1.26A7.5,7.5,0,0,1,323,40c.28,1.74.52,3.3.88,5.58-.26.8-.47.91-2.07.36-2.59-.88-3.39-2-3.45-4.95a52.29,52.29,0,0,1,1-12.36,20.06,20.06,0,0,0,.22-2.62c-1.14,1.31-2.28,2.48-3.28,3.76-1.58,2-3.09,4.09-4.6,6.17a10.42,10.42,0,0,0-1.6,2.63,2.26,2.26,0,0,1-2.24,1.57,4.91,4.91,0,0,1-2.49-1.57c-.29-.27-.15-1-.23-1.75-1.91,1-3,3.68-5.87,2.7-2.17,3-4.17,6.08-6.57,8.85-1.42,1.64-2.07,3.67-3.45,5.27a4.59,4.59,0,0,0-.61,1.39c-.59,1.49-1.79.89-2.67.6a1.5,1.5,0,0,1-1.23-2,17.59,17.59,0,0,1,2.85-5.79c1.71-2.59,3.39-5.21,5-7.67-1.22-.55-2.51-1-3.7-1.7a1.37,1.37,0,0,1-.33-1.31,10.29,10.29,0,0,1,4.66-3.64,7.88,7.88,0,0,1,6.21.12,9.43,9.43,0,0,1,2,1.73c.8-1.52,2.63-2.81,2.53-5.14-3.64-.16-6.81,1-10.09,1.78-3.56.8-6.59,2.55-9.71,4.18-2.15,1.13-4.15,2.56-6.26,3.77-1.43.83-3.94-.42-4.31-1.44a1.25,1.25,0,0,1,.3-1.1c1.52-1.34,3.11-2.62,4.68-3.92.1-.08.21-.23.3-.23,2.91.13,4.94-2,7.4-2.95a47.17,47.17,0,0,1,12.89-3.42,13.78,13.78,0,0,1,8.78,2C308.55,29.25,308.82,30.05,309.38,30.87Zm27.9-10.64c-2.26,1.26-4.11,2.27-5.93,3.33-2,1.14-4,2.32-5.91,3.49-.22.13-.56.26-.6.45-.37,1.69-.69,3.38-1.1,5.49,4.43-2.65,8.51-5.11,13.54-4.44Zm-.82,16.1-6.31,3.22c1.7,2.17,3.2,4.08,4.71,6l.39-.15C335.63,42.52,336,39.67,336.46,36.33Zm-9-.29c.23.06.36.15.45.11,2.92-1.22,5.85-2.44,8.76-3.7.17-.07.2-.45.3-.68-.3-.06-.63-.24-.9-.17A25.42,25.42,0,0,0,327.42,36Zm-3.78.14-.34.12v2.08l1.58-.87Z"/><path class="cls-1" d="M263.61,38l-1.91,2c0,.11,0-.13,0,0a11.5,11.5,0,0,1-2.86.35c-1.17-.15-1.51-1.14-.76-2.09,1.19-1.5,1.86-3.44,3.93-4.22,2.25-.86,6.79,1,7.32,3.26a6.26,6.26,0,0,1-1.47,5.36,11.84,11.84,0,0,1-8.93,4.79c-5.31.2-9.67-2.32-11.5-8.76-.44-1.57-.69-3.19-1.08-5-.26.56-.52,1-.68,1.46-.9,2.56-1.81,5.12-2.64,7.7a7.5,7.5,0,0,0,.15,5.51c.3.66-.6,2-1.31,1.88-.92-.1-1.82-.44-2.74-.6a5.4,5.4,0,0,0-1.83-.11c-2.24.37-4.35-.39-6.43-.91-3.76-.94-7.42-2.29-11.16-3.34-2.94-.82-5.93-1.44-8.89-2.18-.71-.17-1.39-.48-2.08-.71a36.65,36.65,0,0,0-10.33-1.94,36.67,36.67,0,0,1-6.8-.6c-1.4-.33-2.59-1.51-3.88-2.31.25-.35.5-1,.74-1,5.76.12,11-2,16.27-3.83A7.47,7.47,0,0,0,208,30.12c1.65-2.23,1.08-4-1.35-5.45A24.24,24.24,0,0,1,204.52,23a10,10,0,0,0,2.67-1.13,8.21,8.21,0,0,0,1.27-2.25c-.61-.51-1.14-.93-1.64-1.38-.23-.21-.61-.59-.55-.72.15-.32.54-.78.79-.75a55.15,55.15,0,0,1,6.29,1,1.18,1.18,0,0,1,.42,1.87c-.75,1-1.62,2-2.4,3-.35.45-1.16.78-.08,1.53,3.21,2.21,3.44,6,.76,8.92a12.31,12.31,0,0,1-6,3.31,6.89,6.89,0,0,0-2.25,1.07l14.83,4.07c-.08-1.47-.23-2.77-.21-4.06,0-2.07.14-4.14.25-6.21,0-.92-.06-1.7-1.19-1.84-.12,0-.23-.12-.34-.19-3.28-2.16-2.92-1.33-.78-4.21,1.81-2.42,3.69-4.8,5.47-7.25a4.4,4.4,0,0,0,.54-1.71c.45-2.4.85-2.65,3.12-1.89.49.17,1,.32,1.49.44.8.21,1.28,1.58.88,2.56a14.57,14.57,0,0,0-.58,1.42c-.68,2.11-1.46,4.2-2,6.35a75.78,75.78,0,0,0-1.58,8.69,57.91,57.91,0,0,0-.07,6.72,6.23,6.23,0,0,0,.09,1.3c.29,1.42,1.28,1.9,2.62,2.27,2.87.79,5.66,1.83,8.51,2.73a7.29,7.29,0,0,0,1.57.13c.84.08,1.07-.43,1.05-1.12a16,16,0,0,1,1.69-7.09c.36-.82.52-1.73.8-2.59.93-2.92,1.87-5.82,2.78-8.74a4.08,4.08,0,0,0,0-1.16c-.86.37-1.65.74-2.47,1a4.19,4.19,0,0,1-4.45-1.62,1.35,1.35,0,0,1,.34-1.26c5.37-2.75,10.43-6.14,16.27-7.95a6.87,6.87,0,0,1,6.46.95c.94.68.94,1.2-.16,1.59s-2.54.54-3.74,1c-1.93.74-3.82,1.62-5.68,2.53s-3.58,1.88-5.5,2.9l3.9,1.26c3.12-4.46,5.33-5,8.42-2-.58.39-1.16.74-1.69,1.16-1.75,1.42-2.19,3.46-2.63,5.53a17.24,17.24,0,0,0,1.35,10.45c1,2.47,3.74,3.23,6.53,1.89a9.72,9.72,0,0,0,4.32-4.35.82.82,0,0,0,.06-.38,2.57,2.57,0,0,0-.05-.4Z"/><path class="cls-1" d="M428.66,48.4c-1.72.21-2.69,0-3.3-1.5-.91-2.22-2.29-4.27-3.13-6.52a29.62,29.62,0,0,1-1.17-5.72c-.23-1.42-.51-1.47-1.93-1.67a8.31,8.31,0,0,1-3.21-1.49A21.38,21.38,0,0,1,413,29.05c-1-.95-1.88-2-2.78-3A19.85,19.85,0,0,1,408.63,24a4.62,4.62,0,0,1-.44-1.28,11,11,0,0,0-.4-1.67c-.4-.87-.14-1.53.83-1.45,1.36.1,2.15-.64,3.09-1.43a26.74,26.74,0,0,1,8.14-5c2.65-1,2.58-.47,2.76-3.88.12-2.28,0-4.57,0-6.94,1.58-.7,3,.44,4.09,1.39.61.52.57,1.92.64,2.94a15.32,15.32,0,0,1-.23,2.6c-.1.9.25,1.34,1.2,1.24a25.33,25.33,0,0,0,3.26-.31,11.62,11.62,0,0,1,6.27.59c2.64.81,3.12,2,2.37,4.62a28.9,28.9,0,0,1-4,8.09c-1,1.46-1.59,3.19-2.65,4.57-.95,1.22-1.7,3-3.7,2.87-.6,0-1.17-.4-1.77-.44a5.08,5.08,0,0,0-2.44.13c-.32.15-.22,1.31-.18,2a45,45,0,0,0,.36,4.5c.29,2,.64,3.94,1.12,5.87.21.84.91,1.56,1.17,2.4A21,21,0,0,1,428.66,48.4ZM425.58,26a29.14,29.14,0,0,0,3.59-1,3.15,3.15,0,0,0,1.58-1.38,25.45,25.45,0,0,1,2.35-4.47c.84-1.17,1.21-2.68,1.94-3.94.6-1,.32-1.48-.73-1.33a65.68,65.68,0,0,0-7.11,1.4c-.43.11-.64,1.25-.8,2,0,.12.75.54,1.18.61,1.67.25,3.2.63,3.86,2.68A15.1,15.1,0,0,1,428.22,23C426.81,23.55,425.64,24,425.58,26Zm-6.12-.27c-1-.84-2-1.52-2.84-2.32-.62-.6-.64-1.17.38-1.55a21.82,21.82,0,0,0,3.3-1.6,2.53,2.53,0,0,0,.75-1.14c.1-.21.13-.64,0-.76a1,1,0,0,0-.83-.17c-2.15,1.37-4.55,2.46-5.92,4.76a2.47,2.47,0,0,0-.19,1.91,11.93,11.93,0,0,0,1.69,2.3,1.11,1.11,0,0,0,1.88.14C418.24,26.77,418.87,26.27,419.46,25.76Z"/><path class="cls-1" d="M77.67,49.46a66.42,66.42,0,0,0,3.53-6.09,101.51,101.51,0,0,0,4.53-11.59c.6-2,.15-4.3.1-6.46a1.15,1.15,0,0,0-.83-.77c-2.4.17-5-.18-7,1.55A5.5,5.5,0,0,0,76.59,28c-1.21,2.77-2.29,5.6-3.5,8.38-.42,1-.28,1.57.72,1.94a2.2,2.2,0,0,1,.9.46,13.52,13.52,0,0,1,1,1.46c-.63.15-1.49.63-1.84.39-2.58-1.79-3.36.41-4.5,1.88-.56.73-1.14,1.45-1.75,2.15a3.41,3.41,0,0,1-4.09.93c-2.14-.8-3-2.49-3.19-4.72a9.9,9.9,0,0,1,2.06-7.09,2.78,2.78,0,0,0,.42-3.56A65.56,65.56,0,0,1,60,23c1.69-1.43,4.59-.86,5.35,1,.43,1,.71,2.14,1.1,3.19a9.69,9.69,0,0,0,.59,1.16c1.86-1.38,3.62-2.59,5.25-3.94a4.11,4.11,0,0,0,1.06-1.89,2.83,2.83,0,0,1,3.49-2,53.43,53.43,0,0,0,7.93,1.38c2,.14,4.7.56,5.6,3.27A10.15,10.15,0,0,1,90.89,27c.56,4.25-.78,8.08-2.6,11.82-1.14,2.32-2.2,4.68-3.36,7A14.31,14.31,0,0,1,83,49a4.15,4.15,0,0,1-2.45,1.27A9,9,0,0,1,77.67,49.46ZM65.6,40.18c1.72-3.75,1.72-3.75,1-4.23C65.92,37.17,65,38.33,65.6,40.18Z"/><path class="cls-1" d="M106.24,26.83c-1.13.82-2.12,1.41-3,2.17-2,1.81-3.15,1.75-5.66.25a2.24,2.24,0,0,1-.45-.27c-.31-.32-.6-.67-.9-1a8.57,8.57,0,0,1,1-.86c2.28-1.37,4.58-2.73,6.88-4.09.74-.43,1.55-.77,2.25-1.26a11.75,11.75,0,0,0,1.38-1.54,7.88,7.88,0,0,1-5.75-1.8c-.24-.22-.51-.64-.45-.9s.48-.72.74-.72c2.84.1,5.38-1.41,8.12-1.54A6.23,6.23,0,0,1,116,17.81c.61.85-.18,3-1.56,3.62-2.39,1.13-2.79,3.24-3,5.46-.18,1.54-.24,3.09-.37,4.8,1.07-.17,1.93-.24,2.75-.44,2.6-.63,5.16-1.44,7.79-1.92a8.34,8.34,0,0,1,3.66.54c-1.29,1.09-2.44,2.19-4.15,2.31a5.4,5.4,0,0,0-1.28.48c-1.15.39-2.32.74-3.46,1.16a31.68,31.68,0,0,1-3.89,1.48c-1.27.28-1.3,1.11-1.26,2,.12,3.33.34,6.66.45,10,.06,1.83-.69,2.23-2.44,2a20,20,0,0,1-9-3.91c-2-1.46-3.55-3.58-5.21-5.48-.66-.76-.31-1.42.62-1.83,2.09-.9,4.14-1.88,6.22-2.8a9.93,9.93,0,0,1,2.52-.92c1.88-.27,2.18-1.56,2.18-3.06C106.48,29.94,106.35,28.58,106.24,26.83Zm-5.93,13.59A12.78,12.78,0,0,0,107,45.7c-.14-2.63-.27-5.11-.41-7.93Z"/><path class="cls-1" d="M357.18,30.57l-1.93,4.15c-.52,1.14-1,2.28-1.56,3.41-1,2.22-2,4.46-3.11,6.65s-2.1,4.23-3.27,6.27a1.72,1.72,0,0,1-2.53.52c-.86-.47-1.87-.85-1.19-2.26,1.14-2.37,2.18-4.8,3.23-7.22s2-4.7,3-7c.69-1.58,1.5-3.1,2.16-4.69s1.36-3.44,2-5.19c1.16-3.24,2.37-6.48,3.4-9.77a17.89,17.89,0,0,0,.72-8.78c-.21-1.08.72-1,1.4-1a4.15,4.15,0,0,1,3.83,4.64c-.49,2.86-.94,5.74-1.61,8.57a42.05,42.05,0,0,1-1.82,4.82c-.32.84-.6,1.7-.92,2.63a18.17,18.17,0,0,1,1.58.92,3.8,3.8,0,0,1,1.31,2.14,21.63,21.63,0,0,0,3.72,7.11,57.2,57.2,0,0,0,10.62,9.88,13.3,13.3,0,0,1,1.74,1.77c-2.4,1-3.91-.49-5.36-1.41a40.74,40.74,0,0,1-13.71-13.3c-.28-.47-.56-1-.8-1.46s-.34-.91-.51-1.36Z"/><path class="cls-1" d="M10,43.1a33.27,33.27,0,0,1,3-2.39c2-1.26,4-2.42,6.06-3.55a2,2,0,0,0,1.15-1.84c.17-2.79.49-5.56.74-8.34a2.78,2.78,0,0,0-.2-.63c-2.35,2.68-4.72,5.36-8,1.32A36.46,36.46,0,0,1,20.58,21c1.06-.64,1.89-1.44,3.32-1.31a2.9,2.9,0,0,1,2.77,3.61c-.49,3.15-.79,6.34-1.16,9.51-.05.42-.06.85-.11,1.47,1.64-.45,3.23-.84,4.79-1.33a16.46,16.46,0,0,1,7-.14c.4.05.75.58,1.12.9a5.42,5.42,0,0,1-1.3.88c-1.64.51-3.33.83-5,1.38s-3.39,1.43-5.12,2a2.57,2.57,0,0,0-1.95,2.67c-.09,2.82-.4,5.64-.59,8.23-3,1.12-5.52.15-8-.77A11.87,11.87,0,0,1,10,43.1Zm9.91-1.7c-1.09.77-2.05,1.42-3,2.11s-1.13,1.2,0,1.82a9.2,9.2,0,0,1,1.14.86c.67.51,1.43.28,1.53-.55C19.81,44.31,19.84,43,19.94,41.4Z"/><path class="cls-1" d="M156.93,24a22.78,22.78,0,0,0-2.48.54c-3,1-6.06,1.93-9,3.17a4,4,0,0,1-4.16-.3,20,20,0,0,1-2.07-1.84,14.25,14.25,0,0,1,2.19-1.21,114.43,114.43,0,0,1,12.05-3.93c3.23-.71,6.63-1.15,10-.18,2.29.67,2.73,2,1,3.78q-2.11,2.25-4.36,4.36c-2.78,2.62-4.47,6-6.16,9.29a4,4,0,0,0,.28,4.58,4.64,4.64,0,0,0,3.51,1.62,24.92,24.92,0,0,0,4.94-.42,5.41,5.41,0,0,1,4.33,1.3c-1.45.56-2.69,1.09-4,1.53-3.51,1.21-6.93.4-10.16-.88A7.23,7.23,0,0,1,150,34.3c1.74-2.4,3.24-5,4.91-7.41a33.14,33.14,0,0,1,2.16-2.58Z"/><path class="cls-1" d="M386.22,34.33a15.08,15.08,0,0,0,2.3-1.85c1.45-1.83,2.81-3.73,4.17-5.63.83-1.17,2.4-1.39,4-.44.59.36,1.14.79,1.94,1.35-.74,1-1.49,2-2.19,3.07-1.41,2.07-2.88,4.11-4.16,6.26a30.15,30.15,0,0,0-1.93,4.34,9.21,9.21,0,0,0-.26,1.78,6.89,6.89,0,0,0,1.77-.44c3.66-2.16,7.32-4.32,10.91-6.61a2.22,2.22,0,0,1,2.29-.33c.88.4.81,1.2.53,2-.05.16,0,.35,0,.29L404,39.41c-1.2,1-2.35,2.09-3.6,3a48.51,48.51,0,0,1-4.48,3.06c-2,1.15-4.17,2.33-6.38,1.23-3.14-1.58-5.68-3.28-3.93-7.91.26-.7.25-1.2-.51-1.61-2.67-1.45-3.92-4-4.77-6.7-.33-1.06-.35-2.21-.67-3.27-.22-.74.1-.82.65-.9,1.66-.25,2.9.72,4.16,1.51.33.21.24,1,.38,1.57C385.28,31,385.71,32.49,386.22,34.33Z"/><path class="cls-1" d="M53.81,47.14c-.56.23-1.15.7-1.69.64a13,13,0,0,1-7.77-3.39,20.24,20.24,0,0,1-2.59-3.57,17.43,17.43,0,0,1-2.53-8.21,80.44,80.44,0,0,1-.18-8.79c0-1.79.26-3.57.28-5.35,0-1,.39-1.31,1.27-1.17a17.56,17.56,0,0,1,2.92.59c.3.1.58.77.57,1.17,0,2.36-.18,4.72-.24,7.08a51,51,0,0,0,0,5.39,45,45,0,0,0,.89,5.64c.45,2,1.74,3.7,2.71,5.52A7.37,7.37,0,0,0,51.41,46a16.32,16.32,0,0,0,2.23.63Z"/><path class="cls-1" d="M452.16,48.67c-2.18.88-3.56-.28-4.88-1.32-2.91-2.3-4-5.51-4.18-9.11a67.94,67.94,0,0,1-.23-7.13c.19-3,.67-6,1.11-8.93a39.82,39.82,0,0,1,1-4.68c.11-.39.74-1,1-.94a18.52,18.52,0,0,1,3.58,1.31,1.48,1.48,0,0,1,.32,1.38,28.83,28.83,0,0,0-2.17,9.18c-.23,3.34-.42,6.7-.34,10a12.9,12.9,0,0,0,2.62,8A27.77,27.77,0,0,0,452.16,48.67Z"/><path class="cls-1" d="M137.49,47.09a7.92,7.92,0,0,1-5.19-3.22A15.68,15.68,0,0,1,129,35.1c-.41-4.84-.44-9.72-.56-14.58a34.31,34.31,0,0,1,.39-3.86c.74.17,1.48.31,2.21.5.29.08.54.38.82.38,2.06,0,1.58,1.51,1.56,2.68-.06,3.76-.32,7.51-.21,11.26.12,4.53.8,9,3.58,12.81C137.28,45,137.24,46,137.49,47.09Z"/><path class="cls-1" d="M172.94,48.06c.45-1.82.84-3.58,1.33-5.32s1-3.18,1.54-4.78c.33-1.08.77-1.86,2.1-1.27a19.39,19.39,0,0,1,2.46,1.06,1.47,1.47,0,0,1,.3,1.33c-.68,2.07-1.46,4.11-2.22,6.16-.57,1.51-1.17,3-1.76,4.53-.24.6-.56,1-1.27.49-.08-.06-.32.14-.5.16s-.7.12-.76,0C173.71,49.67,173.33,48.85,172.94,48.06Z"/><path class="cls-1" d="M251,9.2c1,.41,2.38.9,3.68,1.5a1,1,0,0,1,.4,1,1.3,1.3,0,0,1-.89.73,21.13,21.13,0,0,0-9.68,3.28c-2.86,1.65-3.89,1.19-5.8-.82a1.11,1.11,0,0,1,.14-1A25.55,25.55,0,0,1,251,9.2Z"/><path class="cls-1" d="M60.14,20c-3,1.06-4.75-.79-6.6-2.31a.79.79,0,0,1,.52-1.39c1.32.05,2.84,0,3.9.61S59.42,18.89,60.14,20Z"/><path class="cls-1" d="M49.71,21.66A14.81,14.81,0,0,1,52,21.38c.63,0,1.25.39,1.88.42,1.17.06,1.63,1.07,2.35,1.68s0,1.47-.85,1.49C53,25,51.28,23.75,49.72,22.2Z"/></g></g></svg>